<svg version="1.1" viewBox="0.0 0.0 120.82939632545931 122.0761154855643" fill="none" stroke="none" stroke-linecap="square" stroke-miterlimit="10" xmlns:xlink="http://www.w3.org/1999/xlink" xmlns="http://www.w3.org/2000/svg"><clipPath id="p.0"><path d="m0 0l120.8294 0l0 122.07612l-120.8294 0l0 -122.07612z" clip-rule="nonzero"/></clipPath><g clip-path="url(#p.0)"><path fill="#000000" fill-opacity="0.0" d="m0 0l120.8294 0l0 122.07612l-120.8294 0z" fill-rule="evenodd"/><path fill="#ff9900" d="m0 0l119.59055 0l0 119.59055l-119.59055 0z" fill-rule="evenodd"/><path stroke="#000000" stroke-width="1.0" stroke-linejoin="round" stroke-linecap="butt" d="m0 0l119.59055 0l0 119.59055l-119.59055 0z" fill-rule="evenodd"/><path fill="#000000" fill-opacity="0.0" d="m0 17.433071l119.59055 0l0 84.72441l-119.59055 0z" fill-rule="evenodd"/><path fill="#00ffff" d="m34.296474 36.996822q-0.546875 0.21875 -1.03125 0.21875q-0.703125 0 -1.171875 -0.4375q-0.453125 -0.453125 -0.453125 -1.15625q0 -0.546875 0.25 -0.9375q0.25 -0.40625 0.796875 -0.609375l5.0 -1.78125q0.375 -0.125 0.609375 -0.125q0.703125 0 1.140625 0.46875q0.453125 0.453125 0.453125 1.1875l0 21.703125q0 0.671875 -0.484375 1.15625q-0.46875 0.46875 -1.171875 0.46875q-0.640625 0 -1.125 -0.46875q-0.484375 -0.484375 -0.484375 -1.15625l0 -19.53125l-2.328125 1.0zm18.04477 -4.875q2.390625 0 4.125 1.515625q1.734375 1.5 2.625 4.3125q0.890625 2.8125 0.890625 6.6875q0 3.875 -0.890625 6.6875q-0.890625 2.8125 -2.625 4.328125q-1.734375 1.5 -4.125 1.5q-3.65625 0 -5.65625 -3.296875q-2.0 -3.296875 -2.0 -9.21875q0 -5.921875 2.0 -9.21875q2.0 -3.296875 5.65625 -3.296875zm0 3.296875q-2.140625 0 -3.25 2.546875q-1.109375 2.546875 -1.109375 6.671875q0 4.15625 1.125 6.671875q1.125 2.515625 3.234375 2.515625q2.140625 0 3.234375 -2.53125q1.109375 -2.53125 1.109375 -6.65625q0 -4.09375 -1.125 -6.65625q-1.109375 -2.5625 -3.21875 -2.5625zm16.511662 -3.25q1.6875 0 3.15625 0.875q1.484375 0.875 2.34375 2.359375q0.859375 1.46875 0.859375 3.15625q0 1.703125 -0.859375 3.171875q-0.859375 1.46875 -2.328125 2.34375q-1.453125 0.859375 -3.171875 0.859375q-1.734375 0 -3.203125 -0.859375q-1.46875 -0.875 -2.3437538 -2.34375q-0.859375 -1.46875 -0.859375 -3.171875q0 -1.6875 0.859375 -3.15625q0.8750038 -1.484375 2.3437538 -2.359375q1.46875 -0.875 3.203125 -0.875zm13.65625 0.625q0.578125 -0.625 1.3125 -0.625q0.703125 0 1.1875 0.484375q0.484375 0.46875 0.484375 1.140625q0 0.546875 -0.359375 0.984375l-16.984375 21.859375q-0.484375 0.515625 -1.21875 0.515625q-0.703125 0 -1.171875 -0.46875q-0.453125 -0.484375 -0.453125 -1.15625q0 -0.671875 0.375 -1.09375l16.828125 -21.640625zm-13.65625 2.625q-1.3125 0 -2.234375 0.9375q-0.90625 0.921875 -0.90625 2.203125q0 1.28125 0.90625 2.203125q0.921875 0.90625 2.234375 0.90625q1.28125 0 2.1875 -0.90625q0.921875 -0.921875 0.921875 -2.203125q0 -1.28125 -0.9375 -2.203125q-0.921875 -0.9375 -2.171875 -0.9375zm12.984375 9.0q1.703125 0 3.171875 0.84375q1.46875 0.84375 2.34375 2.328125q0.890625 1.46875 0.890625 3.1875q0 1.734375 -0.875 3.1875q-0.859375 1.453125 -2.328125 2.328125q-1.46875 0.859375 -3.203125 0.859375q-1.71875 0 -3.1875 -0.859375q-1.453125 -0.875 -2.3125 -2.328125q-0.859375 -1.453125 -0.859375 -3.1875q0 -1.71875 0.859375 -3.171875q0.859375 -1.46875 2.3125 -2.328125q1.46875 -0.859375 3.1875 -0.859375zm0 3.265625q-1.28125 0 -2.1875 0.921875q-0.90625 0.90625 -0.90625 2.171875q0 1.28125 0.90625 2.203125q0.90625 0.90625 2.1875 0.90625q1.28125 0 2.203125 -0.90625q0.9375 -0.921875 0.9375 -2.203125q0 -1.265625 -0.9375 -2.171875q-0.921875 -0.921875 -2.203125 -0.921875z" fill-rule="nonzero"/><path fill="#00ffff" d="m44.80586 68.48869q2.71875 0 4.90625 1.25q2.203125 1.25 3.4375 3.4375q1.234375 2.171875 1.234375 4.90625q0 2.75 -1.234375 4.953125q-1.234375 2.1875 -3.4375 3.4375q-2.1875 1.234375 -4.90625 1.234375q-2.734375 0 -4.921875 -1.234375q-2.1875 -1.25 -3.421875 -3.4375q-1.234375 -2.203125 -1.234375 -4.953125q0 -2.734375 1.234375 -4.90625q1.234375 -2.1875 3.421875 -3.4375q2.1875 -1.25 4.921875 -1.25zm0 1.78125q-2.203125 0 -3.96875 1.03125q-1.765625 1.03125 -2.78125 2.828125q-1.0 1.78125 -1.0 3.953125q0 2.21875 1.0 4.015625q1.015625 1.78125 2.78125 2.8125q1.765625 1.03125 3.96875 1.03125q2.1875 0 3.953125 -1.03125q1.765625 -1.03125 2.765625 -2.8125q1.015625 -1.796875 1.015625 -4.015625q0 -2.171875 -1.015625 -3.953125q-1.0 -1.796875 -2.765625 -2.828125q-1.765625 -1.03125 -3.953125 -1.03125zm21.338306 6.890625q0.40625 0 0.671875 0.25q0.265625 0.25 0.265625 0.65625q0 0.375 -0.265625 0.640625q-0.265625 0.265625 -0.671875 0.265625l-7.515629 0l0 7.5625q0 0.390625 -0.265625 0.671875q-0.265625 0.265625 -0.671875 0.265625q-0.375 0 -0.65625 -0.265625q-0.28125 -0.28125 -0.28125 -0.671875l0 -16.875q0 -0.40625 0.28125 -0.671875q0.28125 -0.265625 0.65625 -0.265625l11.265629 0q0.40625 0 0.671875 0.265625q0.265625 0.265625 0.265625 0.65625q0 0.375 -0.265625 0.640625q-0.265625 0.25 -0.671875 0.25l-10.328129 0l0 6.625l7.515629 0zm14.999954 0q0.40625 0 0.671875 0.25q0.265625 0.25 0.265625 0.65625q0 0.375 -0.265625 0.640625q-0.265625 0.265625 -0.671875 0.265625l-7.515625 0l0 7.5625q0 0.390625 -0.265625 0.671875q-0.265625 0.265625 -0.671875 0.265625q-0.375 0 -0.65625 -0.265625q-0.28125 -0.28125 -0.28125 -0.671875l0 -16.875q0 -0.40625 0.28125 -0.671875q0.28125 -0.265625 0.65625 -0.265625l11.265625 0q0.40625 0 0.671875 0.265625q0.265625 0.265625 0.265625 0.65625q0 0.375 -0.265625 0.640625q-0.265625 0.25 -0.671875 0.25l-10.328125 0l0 6.625l7.515625 0z" fill-rule="nonzero"/></g></svg>