<?xml version="1.0" encoding="iso-8859-1"?>
<!-- Generator: Adobe Illustrator 19.0.0, SVG Export Plug-In . SVG Version: 6.00 Build 0)  -->
<svg xmlns="http://www.w3.org/2000/svg" xmlns:xlink="http://www.w3.org/1999/xlink" version="1.1" id="Capa_1" x="0px" y="0px" viewBox="0 0 504.168 504.168" style="enable-background:new 0 0 504.168 504.168;" xml:space="preserve" width="512" height="512">
<g>
	<path style="fill:#FABA45;" d="M301.931,84.863v40.592c0,108.943-82.32,198.648-188.149,210.331v106.283h-0.067H7.5v54.474h489.168   v-54.474V200.486v-20.002V84.863H301.931z"/>
	<rect x="7.5" y="442.069" style="fill:#E95B2D;" width="489.168" height="54.474"/>
	<path style="fill:#FABA45;" d="M113.782,442.069V335.786C55.084,335.786,7.5,383.372,7.5,442.069h106.215H113.782z"/>
	<circle style="fill:#E95B2D;" cx="336.125" cy="227.281" r="14.712"/>
	<circle style="fill:#E95B2D;" cx="311.537" cy="273.285" r="14.712"/>
	<circle style="fill:#E95B2D;" cx="278.446" cy="313.604" r="14.712"/>
	<circle style="fill:#E95B2D;" cx="238.124" cy="346.697" r="14.712"/>
	<circle style="fill:#E95B2D;" cx="351.267" cy="177.364" r="14.712"/>
	<path style="fill:#FABA45;" d="M366.933,422.067c0-71.651,58.084-129.737,129.735-129.737v149.74l-129.735-0.001"/>
	<path style="fill:#E95B2D;" d="M301.931,13.492v71.371h49.696C345.765,54.676,327.305,28.984,301.931,13.492z"/>
	<rect x="301.931" y="84.863" style="fill:#E95B2D;" width="194.737" height="30.975"/>
	<path style="fill:#0F2639;" d="M357.635,77.363c-7.325-29.117-25.944-54.489-51.795-70.272l-11.408-6.966v77.238v15v30.975v2.117   c0,50.571-18.63,99.09-52.459,136.616c-33.509,37.173-79.204,60.68-128.697,66.222C53.286,328.557,4.118,375.479,0.253,434.569H0   v7.5v7.5v54.474h504.168V449.57v-15.001V284.83V123.338V77.363H357.635z M309.431,28.003c15.574,12.794,27.008,30.031,32.665,49.36   h-32.665V28.003z M360.724,92.363h128.444v15.975H309.431V92.363H360.724z M106.282,343.568v91.001h-91   C18.94,386.067,57.78,347.227,106.282,343.568z M489.168,489.043H466.54v-21.828h-15v21.828h-22.629v-21.828h-15v21.828h-22.628   v-21.828h-15v21.828h-22.626v-21.828h-15v21.828h-22.629v-21.828h-15v21.828h-22.628v-21.828h-15v21.828H240.77v-21.828h-15v21.828   h-22.627v-21.828h-15v21.828h-22.628v-21.828h-15v21.828h-22.627v-21.828h-15v21.828h-22.63v-21.828h-15v21.828H52.628v-21.828h-15   v21.828H15v-39.474h106.282h245.65l122.235,0.001V489.043z M489.168,285.037c-72.197,3.908-129.735,63.874-129.735,137.03h15   c0-64.884,50.812-118.123,114.735-122.01v134.512H121.282v-92.17c30.164-4.274,58.876-14.783,84.461-30.662l14.536,21.752   c-2.742,3.694-4.366,8.265-4.366,13.208c0,12.248,9.964,22.212,22.212,22.212s22.212-9.964,22.212-22.212   c0-12.248-9.964-22.212-22.212-22.212c-1.855,0-3.656,0.232-5.379,0.662l-14.539-21.758c7.554-5.438,14.786-11.368,21.642-17.774   l18.514,18.512c-1.363,2.876-2.128,6.088-2.128,9.477c0,12.248,9.964,22.212,22.212,22.212c12.247,0,22.212-9.964,22.212-22.212   c0-12.248-9.964-22.212-22.212-22.212c-3.389,0-6.601,0.766-9.477,2.128l-18.518-18.515c0.893-0.956,1.785-1.916,2.663-2.89   c5.406-5.997,10.442-12.262,15.113-18.75l21.761,14.541c-0.43,1.724-0.662,3.524-0.662,5.379c0,12.248,9.964,22.212,22.212,22.212   c12.248,0,22.212-9.964,22.212-22.212c0-12.248-9.964-22.212-22.212-22.212c-4.943,0-9.513,1.625-13.207,4.366l-21.762-14.542   c4.938-7.958,9.347-16.207,13.21-24.695l24.163,10.008c-0.017,0.355-0.027,0.712-0.027,1.071c0,12.248,9.964,22.212,22.212,22.212   c12.247,0,22.212-9.964,22.212-22.212c0-12.248-9.964-22.212-22.212-22.212c-6.507,0-12.37,2.813-16.437,7.286l-24.171-10.011   c3.274-8.741,6-17.69,8.134-26.804l25.646,5.101c1.589,10.699,10.834,18.934,21.968,18.934c12.247,0,22.212-9.964,22.212-22.212   c0-12.248-9.964-22.212-22.212-22.212c-8.069,0-15.146,4.326-19.036,10.779l-25.661-5.102c1.894-11.617,2.861-23.442,2.861-35.374   v-2.117h179.737V285.037z M238.124,339.485c3.977,0,7.212,3.235,7.212,7.212c0,3.977-3.235,7.212-7.212,7.212   c-3.977,0-7.212-3.235-7.212-7.212C230.913,342.721,234.148,339.485,238.124,339.485z M278.446,306.392   c3.977,0,7.212,3.235,7.212,7.212c0,3.977-3.235,7.212-7.212,7.212c-3.977,0-7.212-3.235-7.212-7.212   C271.234,309.627,274.469,306.392,278.446,306.392z M304.325,273.285c0-3.977,3.235-7.212,7.212-7.212   c3.977,0,7.212,3.235,7.212,7.212c0,3.977-3.235,7.212-7.212,7.212C307.56,280.497,304.325,277.262,304.325,273.285z    M328.914,227.281c0-3.977,3.235-7.212,7.212-7.212c3.977,0,7.212,3.235,7.212,7.212c0,3.977-3.235,7.212-7.212,7.212   C332.149,234.493,328.914,231.258,328.914,227.281z M344.055,177.364c0-3.977,3.235-7.212,7.212-7.212   c3.977,0,7.212,3.235,7.212,7.212c0,3.977-3.235,7.212-7.212,7.212C347.29,184.576,344.055,181.341,344.055,177.364z"/>
</g>















</svg>
