<?xml version="1.0" encoding="iso-8859-1"?>
<!-- Generator: Adobe Illustrator 19.0.0, SVG Export Plug-In . SVG Version: 6.00 Build 0)  -->
<svg version="1.1" id="Layer_1" xmlns="http://www.w3.org/2000/svg" xmlns:xlink="http://www.w3.org/1999/xlink" x="0px" y="0px"
	 viewBox="0 0 512 512" style="enable-background:new 0 0 512 512;" xml:space="preserve">
<circle style="fill:#FFC91B;" cx="255.993" cy="255.993" r="255.993"/>
<path style="fill:#EAA22F;" d="M512,256l-85.334-85.334l-168.683,12.893v216.49l25.782,25.782l-111.563,6.689l79.425,79.425
	c1.456,0.024,2.911,0.055,4.372,0.055C397.384,512,512,397.384,512,256z"/>
<ellipse style="fill:#FF5419;" cx="255.993" cy="427.592" rx="85.343" ry="25.975"/>
<polygon style="fill:#02B2B2;" points="256,96.969 426.666,170.666 256,239.192 "/>
<polygon style="fill:#386895;" points="256,170.335 256,239.192 426.666,170.666 425.899,170.335 "/>
<path style="fill:#273B7A;" d="M256,433.565c-3.81,0-6.899-3.089-6.899-6.899V85.334c0-3.81,3.089-6.899,6.899-6.899
	s6.899,3.089,6.899,6.899v341.332C262.899,430.476,259.81,433.565,256,433.565z"/>
<g>
</g>
<g>
</g>
<g>
</g>
<g>
</g>
<g>
</g>
<g>
</g>
<g>
</g>
<g>
</g>
<g>
</g>
<g>
</g>
<g>
</g>
<g>
</g>
<g>
</g>
<g>
</g>
<g>
</g>
</svg>
