<?xml version="1.0" encoding="iso-8859-1"?>
<!-- Generator: Adobe Illustrator 19.0.0, SVG Export Plug-In . SVG Version: 6.00 Build 0)  -->
<svg version="1.1" id="Capa_1" xmlns="http://www.w3.org/2000/svg" xmlns:xlink="http://www.w3.org/1999/xlink" x="0px" y="0px"
	 viewBox="0 0 509.287 509.287" style="enable-background:new 0 0 509.287 509.287;" xml:space="preserve">
<path style="fill:#FFD302;" d="M254.644,0C113.929,0,0,113.928,0,254.644h509.287C509.287,113.928,395.359,0,254.644,0z"/>
<path style="fill:#3EB9E3;" d="M254.644,509.287c127.152,0,232.604-93.245,251.592-214.972H3.052
	C22.04,416.042,127.491,509.287,254.644,509.287z"/>
<path style="fill:#FFFFFF;" d="M0,254.644c0,13.563,1.017,26.787,3.052,39.332h503.184c2.034-12.885,3.052-26.109,3.052-39.332H0z"
	/>
<path style="fill:#393D47;" d="M324.832,117.658c-19.666,0-35.942,16.275-35.942,35.942v31.195h-90.532V153.6
	c0-8.477,7.121-15.597,15.597-15.597s15.597,7.121,15.597,15.597v13.563h20.344V153.6c0-19.666-15.936-35.942-35.942-35.942
	c-19.666,0-35.942,16.275-35.942,35.942v140.376h20.344v-32.212h90.532v32.212h20.344V153.6c0-8.477,7.121-15.597,15.597-15.597
	c8.477,0,15.597,7.121,15.597,15.597v13.563h20.344V153.6C360.434,133.934,344.498,117.658,324.832,117.658z M198.358,243.454
	v-40.35h90.532v40.35H198.358z"/>
<g style="opacity:0.3;">
	<path style="fill:#FFFFFF;" d="M115.963,322.119h-47.47c-2.034,0-3.391-1.356-3.391-3.391s1.356-3.391,3.391-3.391h47.47
		c2.034,0,3.391,1.356,3.391,3.391S117.997,322.119,115.963,322.119z"/>
	<path style="fill:#FFFFFF;" d="M39.672,322.119H27.465c-2.034,0-3.391-1.356-3.391-3.391s1.356-3.391,3.391-3.391h12.546
		c2.034,0,3.391,1.356,3.391,3.391C43.062,320.763,41.706,322.119,39.672,322.119z"/>
	<path style="fill:#FFFFFF;" d="M270.241,322.119h-47.47c-2.034,0-3.391-1.356-3.391-3.391s1.356-3.391,3.391-3.391h47.47
		c2.034,0,3.391,1.356,3.391,3.391S271.936,322.119,270.241,322.119z"/>
	<path style="fill:#FFFFFF;" d="M482.162,322.119H331.274c-2.034,0-3.391-1.356-3.391-3.391s1.356-3.391,3.391-3.391h150.887
		c2.034,0,3.391,1.356,3.391,3.391S483.857,322.119,482.162,322.119z"/>
	<path style="fill:#FFFFFF;" d="M238.368,356.366h-80.021c-3.73,0-6.781-3.052-6.781-6.781s3.052-6.781,6.781-6.781h80.021
		c3.73,0,6.781,3.052,6.781,6.781S242.098,356.366,238.368,356.366z"/>
	<path style="fill:#FFFFFF;" d="M104.774,356.366H74.257c-3.73,0-6.781-3.052-6.781-6.781s3.052-6.781,6.781-6.781h30.517
		c3.73,0,6.781,3.052,6.781,6.781S108.503,356.366,104.774,356.366z"/>
	<path style="fill:#FFFFFF;" d="M360.095,356.366h-80.021c-3.73,0-6.781-3.052-6.781-6.781s3.052-6.781,6.781-6.781h80.021
		c3.73,0,6.781,3.052,6.781,6.781S363.825,356.366,360.095,356.366z"/>
	<path style="fill:#FFFFFF;" d="M471.989,356.366h-13.224c-3.73,0-6.781-3.052-6.781-6.781s3.052-6.781,6.781-6.781h13.224
		c3.73,0,6.781,3.052,6.781,6.781S475.719,356.366,471.989,356.366z"/>
	<path style="fill:#FFFFFF;" d="M400.445,405.192h-46.792c-5.764,0-10.172-4.408-10.172-10.172s4.408-10.172,10.172-10.172h46.792
		c5.764,0,10.172,4.408,10.172,10.172C410.617,400.445,406.209,405.192,400.445,405.192z"/>
	<path style="fill:#FFFFFF;" d="M297.367,405.192h-99.009c-5.764,0-10.172-4.408-10.172-10.172s4.408-10.172,10.172-10.172h99.009
		c5.764,0,10.172,4.408,10.172,10.172C307.539,400.445,302.792,405.192,297.367,405.192z"/>
	<path style="fill:#FFFFFF;" d="M122.744,405.192H91.889c-5.764,0-10.172-4.408-10.172-10.172s4.408-10.172,10.172-10.172h30.856
		c5.764,0,10.172,4.408,10.172,10.172C132.917,400.445,128.17,405.192,122.744,405.192z"/>
	<path style="fill:#FFFFFF;" d="M376.371,446.898H265.494c-7.46,0-13.563-6.103-13.563-13.563s6.103-13.563,13.563-13.563H376.71
		c7.46,0,13.563,6.103,13.563,13.563C389.934,440.795,383.83,446.898,376.371,446.898z"/>
	<path style="fill:#FFFFFF;" d="M229.891,446.898h-18.649c-7.46,0-13.563-6.103-13.563-13.563s6.103-13.563,13.563-13.563h18.649
		c7.46,0,13.563,6.103,13.563,13.563S237.351,446.898,229.891,446.898z"/>
	<path style="fill:#FFFFFF;" d="M296.689,486.909h-93.923c-7.46,0-13.563-6.103-13.563-13.563s6.103-13.563,13.563-13.563h93.923
		c7.46,0,13.563,6.103,13.563,13.563S304.148,486.909,296.689,486.909z"/>
	<path style="fill:#FFFFFF;" d="M171.232,446.898h-55.269c-7.46,0-13.563-6.103-13.563-13.563s6.103-13.563,13.563-13.563h54.93
		c7.46,0,13.563,6.103,13.563,13.563C184.795,440.795,178.691,446.898,171.232,446.898z"/>
</g>
<g>
</g>
<g>
</g>
<g>
</g>
<g>
</g>
<g>
</g>
<g>
</g>
<g>
</g>
<g>
</g>
<g>
</g>
<g>
</g>
<g>
</g>
<g>
</g>
<g>
</g>
<g>
</g>
<g>
</g>
</svg>
